<?xml version="1.0" standalone="no"?>
<!DOCTYPE svg PUBLIC "-//W3C//DTD SVG 20010904//EN"
 "http://www.w3.org/TR/2001/REC-SVG-20010904/DTD/svg10.dtd">
<svg version="1.0" xmlns="http://www.w3.org/2000/svg"
 width="304.000000pt" height="266.000000pt" viewBox="0 0 304.000000 266.000000"
 preserveAspectRatio="xMidYMid meet">

<g transform="translate(0.000000,266.000000) scale(0.100000,-0.100000)"
fill="#000000" stroke="none">
<path d="M1190 2584 c-96 -30 -276 -86 -400 -125 -124 -39 -265 -83 -315 -99
-49 -16 -130 -40 -180 -55 -154 -45 -241 -75 -258 -88 -44 -35 -29 -63 170
-340 35 -48 63 -93 63 -98 0 -6 -61 -76 -135 -157 l-135 -147 2 -69 3 -69 120
-56 c66 -31 126 -60 133 -64 9 -6 12 -87 12 -348 0 -278 3 -345 15 -368 14
-28 25 -35 146 -89 35 -16 245 -113 465 -216 232 -107 414 -186 431 -186 40 0
1207 396 1283 435 16 8 38 27 49 41 20 26 21 37 21 379 l0 353 121 43 c121 42
149 62 149 103 0 11 -58 97 -130 191 -71 94 -132 179 -135 187 -7 17 65 80
238 206 84 62 97 76 97 101 0 16 -6 33 -12 39 -7 6 -121 56 -253 112 -528 225
-690 290 -725 290 -31 0 -56 -17 -187 -125 -84 -69 -156 -125 -162 -125 -5 0
-31 39 -57 88 -89 163 -173 300 -189 306 -33 12 -73 4 -245 -50z m266 -116
c131 -221 143 -243 136 -249 -7 -7 -523 -171 -1002 -319 -140 -44 -258 -76
-263 -71 -28 28 -235 337 -229 342 4 4 198 66 432 138 234 72 517 160 630 196
113 35 212 64 220 64 9 1 41 -41 76 -101z m625 -64 c28 -14 113 -49 188 -79
143 -55 592 -244 637 -268 l26 -14 -25 -16 c-14 -9 -83 -62 -153 -118 l-127
-102 -46 20 c-139 61 -793 353 -815 365 -25 13 -24 14 116 126 77 61 143 112
145 112 2 0 27 -12 54 -26z m-461 -599 l0 -334 -156 -50 -156 -50 -201 88
c-368 161 -687 304 -685 306 2 2 197 64 433 138 659 208 749 236 758 237 4 0
7 -151 7 -335z m540 128 c179 -80 335 -151 348 -157 21 -11 13 -15 -90 -48
-62 -19 -239 -76 -393 -125 -154 -50 -290 -94 -302 -97 l-23 -7 0 320 0 320
68 -30 c37 -17 213 -96 392 -176z m-1440 -384 c212 -93 418 -184 458 -201 39
-17 72 -36 72 -42 0 -21 -280 -321 -298 -320 -9 1 -127 52 -262 114 -135 61
-303 138 -375 170 -240 107 -285 129 -285 139 0 14 281 311 294 311 6 0 185
-77 396 -171z m2024 -9 c69 -93 126 -174 126 -179 0 -5 -93 -41 -207 -79 -115
-39 -381 -129 -591 -201 -211 -72 -389 -131 -396 -131 -12 0 -301 337 -301
352 0 9 173 68 670 227 193 62 395 127 450 146 55 18 105 33 111 34 6 0 68
-75 138 -169z m-1464 -875 l0 -564 -39 17 c-21 9 -232 107 -469 216 -408 189
-430 201 -436 229 -10 48 -7 617 3 617 5 0 71 -29 147 -64 461 -212 454 -209
489 -200 14 3 80 69 160 160 75 85 139 154 141 154 2 0 4 -254 4 -565z m368
218 c21 -5 135 30 482 147 250 84 461 155 468 158 9 3 12 -65 12 -319 0 -178
-4 -330 -9 -337 -10 -16 -114 -55 -616 -228 -214 -75 -441 -153 -503 -175 -62
-21 -118 -39 -123 -39 -5 0 -9 220 -9 561 l0 560 135 -160 c93 -111 144 -163
163 -168z"/>
</g>
</svg>
